<svg fill="#FFFFFF" xmlns="http://www.w3.org/2000/svg" xml:space="preserve" viewBox="0 0 2500 1059.1"><path d="M202.2 930H130V707.4h72.3c49.5 0 72.5 36.9 72.5 103-.1 90.8-27.6 119.6-72.6 119.6M130 384.5h70.5c36.4 0 65.9 26.8 65.9 100.6 0 74.6-34 100.4-65.9 100.4H130v-201zM322.9 638v-.6c28.7-20.1 74.5-54.7 74.5-165.9 0-143.6-74.9-208.7-176.2-208.7H0v788.8h220c124.7 0 185.4-92.4 185.4-230.1-.1-128.4-50.5-163.9-82.5-183.5zm321.5-253.5h70.5c36.4 0 65.8 26.8 65.8 100.6 0 74.6-33.9 100.4-65.8 100.4h-70.5v-201zm264.9 403.1c0-98.3-30.5-125.9-72-149.6v-.6c28.7-20.1 74.1-54.7 74.1-165.9 0-143.6-74.5-208.7-175.8-208.7H514.4v788.8h129.9l.1-344.2h70.5c37 0 63.4 30.7 63.4 100.4v243.8h131v-264zm253.4-596.1c0-59.3 54.5-67 84.5-67 30.1 0 84.3 7.5 84.3 67v393.9h-168.9l.1-393.9zM1247.2 0c-54.9 0-214.3 12.5-214.3 171.9v879.8h129.9V707.5h168.7v344.1h130.1V171.9C1461.6 12.2 1302 0 1247.2 0zm603.6 262.7v620.9c0 31.6-26.1 52.7-64.9 52.7-39 0-64.6-21.1-64.6-52.7l-.1-620.9-129.9.2v641.5c0 122.1 125.6 154.7 194.8 154.7 68.6 0 194.7-32.7 194.7-154.9V262.7h-130zm519.3 788.8V430.8c0-31.6-26.1-52.7-64.9-52.7-39 0-64.7 21.2-64.7 52.7v620.7l-129.9.1V410.1c0-122.1 125.6-154.7 194.8-154.7 68.6 0 194.7 32.7 194.7 154.9v641.3l-130-.1"></path></svg>