<svg xmlns="http://www.w3.org/2000/svg" xmlns:xlink="http://www.w3.org/1999/xlink" id="Layer_1" x="0px" y="0px" fill="#FFFFFF" viewBox="0 0 519.4 400.1" xml:space="preserve"><g>	<path d="M514.6,358.7c-3-3.4-6.7-5.9-10.9-7.5c-3.9-1.5-9.1-3-15.2-4.4c-5.6-1.2-9.9-2.5-12.5-3.8c-2.5-1.2-2.9-2.7-2.9-3.9  c0-1.9,0.8-3.4,2.6-4.6c2.1-1.4,5.4-2.1,10.1-2.1c6.9,0,13.9,2,20.9,5.9l2.4,1.4l7.5-18.5l-1.7-1.1c-3.8-2.4-8.4-4.3-13.5-5.5  c-5-1.3-10.2-1.9-15.5-1.9c-7.6,0-14.1,1.2-19.5,3.5c-5.5,2.4-9.6,5.7-12.4,9.8c-2.8,4.1-4.2,8.8-4.2,13.9c0,5.9,1.6,10.7,4.8,14.4  c3,3.5,6.7,6.1,11,7.6c3.9,1.5,9.1,3,15.2,4.4c3.8,0.9,6.9,1.7,9.2,2.4c2,0.7,3.6,1.5,4.9,2.6c0.9,0.8,1.4,1.7,1.4,2.9  c0,1.1-0.3,2.7-2.6,4.1c-2.1,1.3-5.6,2-10.3,2c-4.4,0-8.9-0.7-13.4-2.2c-4.4-1.4-8.3-3.3-11.5-5.7l-2.4-1.8l-8.3,18.4l1.5,1.2  c3.8,2.9,8.8,5.3,15,7.1c6.1,1.8,12.5,2.7,19,2.7c7.6,0,14.2-1.2,19.5-3.5c5.5-2.4,9.7-5.7,12.5-9.8c2.8-4.2,4.2-8.8,4.2-13.8  C519.4,367.1,517.8,362.3,514.6,358.7z"></path>	<rect x="128.3" width="265.8" height="96.7"></rect>	<polygon points="128.1,109 128.1,205.5 193.7,205.5 374.8,109  "></polygon>	<polygon points="261,289.3 394.1,218.5 394.1,205.5 394.1,205.5 394.1,109 394.1,109 394.1,109 394.1,109 394,109 158.2,234.7  "></polygon>	<path d="M120.5,314.2l-37.7,84.6h24.3l7.1-17.1h33.7l7.1,17.1h24.8l-37.8-84.6H120.5z M122.1,362.8l9-21.7l9,21.7H122.1z"></path>	<path d="M303.2,336.3c3.6-1.9,7.7-2.9,12.4-2.9c6.3,0,11.7,2,16.4,6l19.3-10.3l-1.4-1.7c-4.1-4.7-9.2-8.4-15.3-10.9  c-6-2.5-12.7-3.7-19.9-3.7c-8.7,0-16.7,1.9-23.7,5.6c-7,3.7-12.6,9-16.6,15.6c-4,6.6-6,14.2-6,22.5c0,8.3,2,15.9,6,22.5  c4,6.6,9.5,11.9,16.5,15.6c6.9,3.7,14.8,5.6,23.5,5.6c6,0,12-0.9,17.9-2.7c5.9-1.8,11.2-4.5,15.8-7.9l1-0.7l0-41.4h-33.3v19.1h11.5  V377c-3.6,1.6-7.6,2.5-11.9,2.5c-4.6,0-8.7-1-12.2-2.9c-3.5-1.9-6.3-4.7-8.2-8.1c-2-3.5-3-7.5-3-12c0-4.6,1-8.6,3-12.1  C296.9,340.9,299.7,338.2,303.2,336.3z"></path>	<path d="M255,362.1c3.1-4.7,4.7-10.3,4.7-16.7c0-6.4-1.5-12-4.6-16.7c-3.1-4.7-7.4-8.4-13.1-10.9c-5.5-2.5-12-3.7-19.4-3.7h-36.9  V334h35.9c4.9,0,8.7,1,11.1,3c2.3,1.9,3.4,4.7,3.4,8.4c0,3.7-1.1,6.4-3.5,8.4c-2.4,2-6.1,3.1-11.1,3.1H209v-22.5L185.7,347v51.7  H209v-22.2h13.2l15.4,22.2h25.8l-18.9-27.1C248.9,369.2,252.4,366,255,362.1z"></path>	<path d="M416,360.5c0,6.7-1.3,11.6-3.9,14.6c-2.6,2.9-6.3,4.4-11.4,4.4c-6.6,0-15.3-2-15.3-19v-46.4l-23.3,12.6v34.5  c0,12.3,3.4,22,10.2,28.7c6.8,6.7,16.3,10.2,28.3,10.2c12,0,21.5-3.4,28.3-10.2c6.8-6.8,10.2-16.4,10.2-28.7v-47.1H416V360.5z"></path>	<path d="M64.1,372c-1.7,2.2-3.7,4-6.2,5.4c-3.4,2-7.2,3-11.5,3c-4.2,0-8-1-11.5-3c-3.4-2-6.1-4.8-8.1-8.4c-2-3.6-3-7.8-3-12.5  c0-4.7,1-8.9,3-12.5c2-3.6,4.7-6.4,8.1-8.4c3.4-2,7.2-3,11.5-3c4.2,0,8,1,11.5,3c1.9,1.1,3.6,2.5,5,4.1l20.2-10.8  c-3.5-4.2-7.8-7.6-12.8-10.3c-7.1-3.7-15-5.6-23.8-5.6c-8.8,0-16.8,1.9-23.8,5.6c-7,3.7-12.6,8.9-16.6,15.5c-4,6.6-6,14.1-6,22.3  c0,8.3,2,15.7,6,22.3c4,6.6,9.6,11.8,16.6,15.5c7.1,3.7,15,5.6,23.8,5.6c8.8,0,16.8-1.9,23.8-5.6c5.6-3,10.3-6.9,14-11.7L64.1,372z  "></path></g></svg>