<svg xmlns="http://www.w3.org/2000/svg" xmlns:xlink="http://www.w3.org/1999/xlink" id="Layer_1" x="0px" y="0px" viewBox="0 0 2334.1 263.2" xml:space="preserve" fill="#FFFFFF"><g>	<path fill-rule="evenodd" clip-rule="evenodd" d="M0,259.8V3.1h156.5L198,118.6L240.8,3.1h165v256.7H278.7V142.5L231,259.8h-64.8  l-48.9-118.6v118.6L0,259.8L0,259.8z M1970.3,259.8V3.1H1845v256.7H1970.3z M1596.2,3.1v256.7H1826v-87.4h-94.1V3.1H1596.2  L1596.2,3.1z M913.4,3.1v256.7h129v-83.1h73.3v83.1H1244V3.1h-128.3v91.7h-73.3V3.1H913.4L913.4,3.1z M1270.5,3.1v256.7h297.6v-66  h-163.8v-25.1h163.8v-59.3h-163.8V84.4h163.8V3.1L1270.5,3.1L1270.5,3.1z M1996.7,259.8V3.1h128.4l81.9,100.2V3.1h127.1v256.7  h-112.5L2128.7,159v100.9H1996.7z M881.1,7.4c-56.2-9.2-180.9-11.6-216.4,3c-35.4,14.7-85.6,42.8-83.1,125.9  c2.4,83.1,53.8,101.4,78.2,112.5c24.4,11,116.7,26.3,223.1-0.6l-1.8-80.1c-33.6,4.9-165,34.8-163.8-31.8  c1.1-61.1,114.9-38.5,163.8-37.9V7.4L881.1,7.4z M559.6,259.8V3.1H434.3v256.7H559.6z"></path></g></svg>