<svg fill="#FFFFFF" xmlns="http://www.w3.org/2000/svg" xmlns:xlink="http://www.w3.org/1999/xlink" id="Layer_1" x="0px" y="0px" viewBox="0 0 171.1 53.4" xml:space="preserve"><g>	<path fill-rule="evenodd" clip-rule="evenodd" stroke="#FFFFFF" stroke-width="7.342000e-02" stroke-miterlimit="2.6131" d="  M161.5,25.2h-1.1l-0.2,1.3h1.4c0.6,0,0.9-0.1,1-0.8C162.6,25.2,162,25.2,161.5,25.2z"></path>	<path fill-rule="evenodd" clip-rule="evenodd" stroke="#FFFFFF" stroke-width="7.342000e-02" stroke-miterlimit="2.6131" d="  M161,23.2c-2.1,0-3.7,1.6-3.7,3.8c0,2.2,1.6,3.8,3.7,3.8c2.1,0,3.7-1.6,3.7-3.8C164.8,24.7,163.1,23.2,161,23.2z M163.6,25.9  c-0.2,0.9-0.7,1.3-1.6,1.4l0.9,2.2h-1.2l-0.8-2.2H160l-0.3,2.2h-1.1l0.8-5.1h2.5C163,24.3,163.8,24.5,163.6,25.9z"></path>	<path fill-rule="evenodd" clip-rule="evenodd" stroke="#FFFFFF" stroke-width="7.342000e-02" stroke-miterlimit="2.6131" d="  M144.7,0H26.5C11.9,0,0,12,0,26.7v0.1c0,14.7,11.8,26.6,26.4,26.6h118.2c14.6,0,26.4-11.9,26.4-26.6v-0.1C171.1,12,159.3,0,144.7,0  z M29.2,45.1c-7.4,0.6-16.8-4-17.1-15.3C12.6,15.6,22.5,7.3,32.8,7.6c8.9-0.1,17,4.8,17,14.8C49.6,36.2,41.2,45.1,29.2,45.1z   M82.8,44.5l-0.3-1c0,0-2.8,1.8-6.9,1.7c-4.7-0.1-9.4-2.7-9.5-7.3c-0.2-10,11.5-9.3,17.8-10.6c2.3-0.5,3.1-3,0.2-3.2  c-1.1-0.1-3.3,0.1-4.2,2.7H65.2c-1.9,0.3-3.9,2.3-4.4,4.2l-2.6,13.5H47.3l5.9-26.2h8.7l0.6,2.6c0,0,4.4-5.1,9.4-2.4l-1.5,4.8  c2.2-4.3,10.6-5.9,14.8-5.7c11,0.6,12.1,5.1,10.8,11l-2.9,13.7c0,0.5,0,0.7,0.2,1.2c0.1,0.4,0.2,0.7,0.5,1H82.8z M106.3,44.5H95.4  l8.2-36.3h10.3L106.3,44.5z M141.1,44.5h-21l3.5-15.4h-8.2l1.4-7.4h8.5l2.9-13.5l18,0c13,0,12.1,15.2,5.4,18  C158.2,30.8,155.8,44.5,141.1,44.5z M161,31.9c-2.7,0-4.9-2.2-4.9-4.9c0-2.8,2.2-5,4.9-5c2.7,0,4.9,2.2,4.9,5  C165.9,29.7,163.7,31.9,161,31.9z"></path>	<path fill-rule="evenodd" clip-rule="evenodd" stroke="#FFFFFF" stroke-width="7.342000e-02" stroke-miterlimit="2.6131" d="  M141.1,29h-5.8l-1.3,6.2h5.4C146.4,35.2,146.3,29,141.1,29z"></path>	<path fill-rule="evenodd" clip-rule="evenodd" stroke="#FFFFFF" stroke-width="7.342000e-02" stroke-miterlimit="2.6131" d="  M143.4,16.3h-5.5l-1.1,5.7h5C148.3,22.1,148.2,16.3,143.4,16.3z"></path>	<path fill-rule="evenodd" clip-rule="evenodd" stroke="#FFFFFF" stroke-width="7.342000e-02" stroke-miterlimit="2.6131" d="  M85.1,32.3C69.8,33.8,82.6,43.9,85.1,32.3L85.1,32.3z"></path>	<path fill-rule="evenodd" clip-rule="evenodd" stroke="#FFFFFF" stroke-width="7.342000e-02" stroke-miterlimit="2.6131" d="  M32.9,16c-2.9,0-8.5,3.6-8.7,12.7c0,5.5,2.8,7.5,5.9,7.4c4.5,0.4,8.8-6.3,9-12.4C39.5,18.1,36.4,16.1,32.9,16z"></path></g></svg>