<svg xmlns="http://www.w3.org/2000/svg" xmlns:xlink="http://www.w3.org/1999/xlink" fill="currentColor" id="Layer_1" x="0px" y="0px" viewBox="0 0 187.9 48" xml:space="preserve"><g>	<path fill-rule="evenodd" clip-rule="evenodd" fill="#FFFFFF" d="M72.8,11.7c0.7-1,1.1-2.1,1.1-3.5c0-1.2-0.3-2.2-0.8-3.1  c-0.5-0.9-1.3-1.5-2.2-2c-1-0.4-2.1-0.7-3.4-0.7h-7.8v19.4h4.1v-7.7h1.7l4.2,7.7l0,0h4.6l-4.7-8.1C71,13.3,72.1,12.6,72.8,11.7z   M67,10.9h-3.2V6H67c0.9,0,1.5,0.2,2,0.6c0.5,0.4,0.7,1,0.7,1.9s-0.2,1.4-0.7,1.9C68.6,10.7,67.9,10.9,67,10.9z"></path>	<path fill-rule="evenodd" clip-rule="evenodd" fill="#FFFFFF" d="M78.4,21.2c1,0.7,2.1,1,3.3,1c0.9,0,1.8-0.2,2.6-0.6  c0.8-0.4,1.4-0.9,1.9-1.6v1.8H90V6.7h-3.9v1.8c-0.5-0.7-1.1-1.2-1.9-1.6c-0.8-0.4-1.6-0.6-2.6-0.6c-1.2,0-2.3,0.3-3.3,1  c-1,0.7-1.7,1.6-2.3,2.8c-0.5,1.2-0.8,2.6-0.8,4.1c0,1.5,0.3,2.9,0.8,4.1C76.6,19.6,77.4,20.5,78.4,21.2z M79.8,11.9  c0.3-0.7,0.7-1.2,1.2-1.5c0.5-0.3,1.1-0.5,1.8-0.5s1.3,0.2,1.8,0.5c0.5,0.3,0.9,0.8,1.2,1.5c0.3,0.7,0.4,1.4,0.4,2.4  c0,0.9-0.1,1.7-0.4,2.4c-0.3,0.7-0.7,1.2-1.2,1.5c-0.5,0.3-1.1,0.5-1.8,0.5s-1.3-0.2-1.8-0.5c-0.5-0.3-0.9-0.8-1.2-1.5  c-0.3-0.7-0.4-1.4-0.4-2.4C79.4,13.3,79.5,12.5,79.8,11.9z"></path>	<rect x="93.3" y="6.7" fill-rule="evenodd" clip-rule="evenodd" fill="#FFFFFF" width="3.9" height="15.1"></rect>	<path fill-rule="evenodd" clip-rule="evenodd" fill="#FFFFFF" d="M95.3,4.6C96,4.6,96.6,4.4,97,4c0.4-0.4,0.6-1,0.6-1.7  S97.4,1.1,97,0.6C96.6,0.2,96,0,95.3,0s-1.2,0.2-1.7,0.6c-0.4,0.4-0.6,1-0.6,1.7s0.2,1.2,0.6,1.7C94.1,4.4,94.6,4.6,95.3,4.6z"></path>	<path fill-rule="evenodd" clip-rule="evenodd" fill="#FFFFFF" d="M111.6,21.8h3.9V10.1h4.1V6.7h-4.1V6c0-0.7,0.2-1.2,0.5-1.5  c0.3-0.3,0.8-0.5,1.5-0.5c0.6,0,1.2,0.1,1.7,0.3l1-3c-0.5-0.2-1-0.3-1.5-0.5c-0.6-0.1-1.1-0.2-1.7-0.2c-1.7,0-3,0.4-3.9,1.3  s-1.4,2.1-1.4,3.8v0.9h-1.9h-0.6h-3.5V6c0-0.7,0.2-1.2,0.5-1.5c0.3-0.3,0.8-0.5,1.5-0.5c0.6,0,1.2,0.1,1.7,0.3l1-3  c-0.5-0.2-1-0.3-1.5-0.5c-0.6-0.1-1.1-0.2-1.7-0.2c-1.6,0-3,0.4-3.9,1.3s-1.4,2.1-1.4,3.8v0.9h-2.6v3.4h2.6v11.6h3.9V10.1h3.5h0.6  h1.9V21.8z"></path>	<polygon fill-rule="evenodd" clip-rule="evenodd" fill="#FFFFFF" points="134.8,15.6 134.8,15.6 134.8,15.6  "></polygon>	<path fill-rule="evenodd" clip-rule="evenodd" fill="#FFFFFF" d="M134,10.1c-0.6-1.2-1.4-2.1-2.5-2.8c-1.1-0.6-2.3-1-3.7-1  c-1.4,0-2.7,0.3-3.8,1c-1.1,0.7-2,1.6-2.6,2.8c-0.6,1.2-0.9,2.6-0.9,4.2c0,1.6,0.3,3,0.9,4.2c0.6,1.2,1.5,2.1,2.7,2.7  c1.2,0.6,2.6,0.9,4.2,0.9c1.2,0,2.2-0.2,3.2-0.5c1-0.3,1.9-0.8,2.6-1.5l-1.7-2.7c-0.5,0.4-1.1,0.8-1.8,1c-0.7,0.2-1.4,0.4-2.3,0.4  c-1.2,0-2.1-0.3-2.7-0.8c-0.6-0.5-1-1.3-1.1-2.5h10.2v-1.4C134.8,12.7,134.6,11.3,134,10.1z M124.7,13c0.3-2.2,1.3-3.3,3.1-3.3  c0.9,0,1.6,0.3,2.2,0.8c0.5,0.5,0.8,1.4,0.9,2.5H124.7z"></path>	<rect x="137.2" y="6.7" fill-rule="evenodd" clip-rule="evenodd" fill="#FFFFFF" width="3.9" height="15.1"></rect>	<path fill-rule="evenodd" clip-rule="evenodd" fill="#FFFFFF" d="M139.2,0c-0.7,0-1.2,0.2-1.7,0.6c-0.4,0.4-0.6,1-0.6,1.7  s0.2,1.2,0.6,1.7c0.4,0.4,1,0.6,1.7,0.6c0.7,0,1.2-0.2,1.7-0.6c0.4-0.4,0.6-1,0.6-1.7s-0.2-1.2-0.6-1.7C140.5,0.2,139.9,0,139.2,0z  "></path>	<path fill-rule="evenodd" clip-rule="evenodd" fill="#FFFFFF" d="M148.4,9.9c0.4-0.2,0.9-0.3,1.7-0.3c0.8,0,1.5,0.1,2.2,0.4  c0.7,0.2,1.3,0.6,1.8,1.1l1.8-2.7c-0.7-0.7-1.6-1.2-2.5-1.5c-1-0.3-2.1-0.5-3.3-0.5c-1.3,0-2.4,0.2-3.3,0.6c-0.9,0.4-1.7,1-2.2,1.7  c-0.5,0.7-0.8,1.6-0.8,2.6c0,0.9,0.2,1.7,0.7,2.3c0.5,0.6,1.1,1,1.9,1.4c0.8,0.3,1.8,0.6,2.9,0.9c0.9,0.2,1.6,0.5,1.9,0.7  c0.3,0.3,0.5,0.6,0.5,1c0,0.5-0.2,0.8-0.6,1.1c-0.4,0.2-1,0.4-1.7,0.4c-1.7,0-3.2-0.5-4.3-1.6l-1.8,2.8c0.7,0.7,1.6,1.2,2.7,1.6h0  c1.1,0.3,2.2,0.5,3.4,0.5c1.3,0,2.5-0.2,3.4-0.6c0.9-0.4,1.7-1,2.2-1.7c0.5-0.7,0.7-1.6,0.7-2.5c0-1-0.2-1.8-0.7-2.4  c-0.5-0.6-1.1-1.1-1.8-1.5c-0.7-0.3-1.6-0.6-2.6-0.9c-0.7-0.2-1.3-0.3-1.7-0.5c-0.4-0.2-0.7-0.3-0.8-0.5c-0.2-0.2-0.2-0.4-0.2-0.7  C147.9,10.5,148.1,10.1,148.4,9.9z"></path>	<polygon fill-rule="evenodd" clip-rule="evenodd" fill="#FFFFFF" points="171.8,15.6 171.8,15.6 171.8,15.6  "></polygon>	<path fill-rule="evenodd" clip-rule="evenodd" fill="#FFFFFF" d="M170.9,10.1c-0.6-1.2-1.4-2.1-2.5-2.8c-1.1-0.6-2.3-1-3.7-1  c-1.4,0-2.7,0.3-3.8,1c-1.1,0.7-2,1.6-2.6,2.8c-0.6,1.2-0.9,2.6-0.9,4.2c0,1.6,0.3,3,0.9,4.2c0.6,1.2,1.5,2.1,2.7,2.7  c1.2,0.6,2.6,0.9,4.2,0.9c1.2,0,2.2-0.2,3.2-0.5s1.9-0.8,2.6-1.5l-1.7-2.7c-0.5,0.4-1.1,0.8-1.8,1c-0.7,0.2-1.4,0.4-2.3,0.4  c-1.2,0-2.1-0.3-2.7-0.8s-1-1.3-1.1-2.5h10.2v-1.4C171.8,12.7,171.5,11.3,170.9,10.1z M161.6,13c0.3-2.2,1.3-3.3,3.1-3.3  c0.9,0,1.6,0.3,2.2,0.8c0.5,0.5,0.8,1.4,0.9,2.5H161.6z"></path>	<path fill-rule="evenodd" clip-rule="evenodd" fill="#FFFFFF" d="M187.2,9.1c-0.4-0.9-1.1-1.6-1.9-2c-0.8-0.5-1.8-0.7-2.9-0.7  c-0.9,0-1.8,0.2-2.6,0.6c-0.8,0.4-1.4,0.9-1.9,1.6V6.7h-3.9v15.1h3.9V11.7c0.4-0.6,0.9-1.1,1.4-1.4c0.5-0.3,1.1-0.5,1.8-0.5  c0.9,0,1.6,0.2,2,0.7c0.4,0.5,0.7,1.2,0.7,2.2v9h3.9v-9.5C187.9,11,187.7,10,187.2,9.1z"></path>	<path fill-rule="evenodd" clip-rule="evenodd" fill="#FFFFFF" d="M70.8,37.4c1.7-0.8,2.5-2.2,2.5-4.1c0-1.6-0.6-2.9-1.7-3.7  c-1.1-0.9-2.7-1.3-4.8-1.3h-7.1v19.4h7.8c2.1,0,3.7-0.5,4.8-1.4c1.1-1,1.7-2.3,1.7-4.1c0-1.1-0.3-2.1-0.8-2.9  C72.7,38.4,71.9,37.8,70.8,37.4z M63.9,31.7h2.6c0.9,0,1.5,0.2,2,0.5c0.4,0.4,0.7,0.9,0.7,1.8c0,0.7-0.2,1.3-0.6,1.7  c-0.4,0.4-1,0.6-1.9,0.6h-2.7V31.7z M69.1,43.6c-0.4,0.4-1.1,0.6-2,0.6h-3.2v-4.7H67c1,0,1.7,0.2,2.1,0.6c0.4,0.4,0.6,1,0.6,1.7  C69.7,42.6,69.5,43.2,69.1,43.6z"></path>	<path fill-rule="evenodd" clip-rule="evenodd" fill="#FFFFFF" d="M86.4,34.4c-0.5-0.7-1.1-1.2-1.9-1.6c-0.8-0.4-1.6-0.6-2.6-0.6  c-1.2,0-2.3,0.3-3.3,1c-1,0.7-1.7,1.6-2.3,2.8c-0.5,1.2-0.8,2.6-0.8,4.1c0,1.5,0.3,2.9,0.8,4.1c0.5,1.2,1.3,2.1,2.3,2.8  c1,0.7,2.1,1,3.3,1c0.9,0,1.8-0.2,2.6-0.6c0.8-0.4,1.4-0.9,1.9-1.6v1.8h3.9V32.5h-3.9V34.4z M86,42.5c-0.3,0.7-0.7,1.2-1.2,1.5  c-0.5,0.3-1.1,0.5-1.8,0.5s-1.3-0.2-1.8-0.5c-0.5-0.3-0.9-0.8-1.2-1.5c-0.3-0.7-0.4-1.4-0.4-2.4c0-0.9,0.1-1.7,0.4-2.4  c0.3-0.7,0.7-1.2,1.2-1.5c0.5-0.3,1.1-0.5,1.8-0.5s1.3,0.2,1.8,0.5c0.5,0.3,0.9,0.8,1.2,1.5c0.3,0.7,0.4,1.4,0.4,2.4  C86.5,41,86.3,41.8,86,42.5z"></path>	<path fill-rule="evenodd" clip-rule="evenodd" fill="#FFFFFF" d="M104.8,32.8L104.8,32.8c-0.8-0.5-1.8-0.7-2.9-0.7  c-0.9,0-1.8,0.2-2.6,0.6c-0.8,0.4-1.4,0.9-1.9,1.6v-1.8h-3.9v15.1h3.9V37.5c0.4-0.6,0.9-1.1,1.4-1.4c0.5-0.3,1.1-0.5,1.8-0.5  c0.9,0,1.6,0.2,2,0.7c0.4,0.5,0.7,1.2,0.7,2.2v9h3.9v-9.5c0-1.3-0.2-2.3-0.7-3.2C106.2,34,105.6,33.3,104.8,32.8z"></path>	<polygon fill-rule="evenodd" clip-rule="evenodd" fill="#FFFFFF" points="118,39.6 123.8,32.5 119.1,32.5 114.2,38.7 114.2,27.1   110.3,27.1 110.3,47.6 114.2,47.6 114.2,40.8 119.4,47.6 124.1,47.6 118,39.6  "></polygon>	<path fill-rule="evenodd" clip-rule="evenodd" fill="#FFFFFF" d="M0,47.6h45.2V2.4H0V47.6z M8.2,10.5c3.1-3,6.1-1.2,7.2-0.2  l5.5,5.5l-1.4,1.4l3,3l3-3l-1.4-1.4l5.5-5.5c1.1-1.1,4.1-2.8,7.2,0.2c2.7,2.7,3,6.1,3,7.1l0,0L38.4,16l-5.8,5.8l-1.6-1.6v-3.8  l-1.6,1.6v4.6l-2.2,2.2l11.7,11.7l-4.6,4.6L22.6,29.5L10.9,41.2l-4.6-4.6L18,24.9l-2.2-2.2v-4.6l-1.6-1.6v3.8l-1.6,1.6L6.8,16  l-1.5,1.5l0,0C5.2,16.6,5.5,13.2,8.2,10.5z"></path></g></svg>