<svg xmlns="http://www.w3.org/2000/svg" xmlns:xlink="http://www.w3.org/1999/xlink" id="Layer_1" x="0px" y="0px" viewBox="0 0 2343.1 769.7" style="enable-background:new 0 0 2343.1 769.7;" xml:space="preserve" fill="#FFFFFF"><g>	<path class="st0" d="M1171.2,0C748.7,0,286.6,168,0,420.7l286.6,348.4c215-183.5,531.9-323.7,884.6-323.1  c353.3,0.6,670.3,139.6,884,323.7l287.9-349C2055.2,168,1594.4,0,1171.2,0z M1171.9,420.7C827.2,420.1,497.3,572,287.3,741.9  l-257-321.8C309.5,185.9,759.2,22.2,1171.9,22.2c412.6,0,861.1,162.5,1142.2,396.6l-258.2,323.1  C1847.1,571.4,1515.9,421.3,1171.9,420.7z"></path>	<path class="st0" d="M2050.9,301.5l-9.9,17.3c15.4,8,24.7,22.2,14.2,35.8l-124.8,39.5l37.1-74.1c13-22.2,31.5-14.8,53.1-11.7  l11.7-18.5l-136.5-63l-10.5,21.6c26.5,11.7,42,28.4,28.4,51.3l-84.6,176.7c-5.5,11.1-13.6,17.9-22.8,17.9l0,0v0  c-3.7,0-7.4-0.6-10.5-2.5l0,0.1c0.2,0.2,0.4,0.3,0.7,0.5l-11.1,27.8l-0.5-0.3l-0.1,0.2c6.8,3.1,14.2,5.6,21.6,9.3v0  c25.3,11.1,52.5,25.9,80.3,45.1l13.6-27.2c-28.4-17.3-32.7-30.9-25.9-51.3l43.2-82.2l38.9,147.1c8.6,43.9,22.2,69.2,67.9,93.9  l15.4-24.7c-23.5-15.4-22.9-40.2-30.3-70.4L1968.1,412l102.5-35.2c38.3-11.1,48.8-6.8,76.6,13.6l16.7-21  C2129.9,344.1,2094.1,323.1,2050.9,301.5z"></path>	<path class="st0" d="M1766.1,440.4l-12.4-64.2c1.9-22.9-4.3-34.6-20.4-51.9c29.6,4.3,55.6-6.2,72.9-22.9l0,0  c27.2-27.2,32.7-70.4,0-101.9c-11.7-11.1-27.2-20.4-48.2-27.8l-46.9-11.7l-114.3-29l-6.2,15.4c30.3,0,35.2,15.4,37.7,48.2  l-56.2,190.9c-9.1,18.8-20.6,28.6-36.2,22l-3.4,15v12.4c38.9,8,78.5,19.8,119.8,34.6l9.9-25.9c-22.2-9.9-44.5-21-37.1-45.7  l28.4-93.9c34,3.7,28.4,24.7,35.8,42.6c6.8,35.8,4.3,81.5,21.6,116.7V289.7c0,0,0,0,0,0v0c-14.2-0.6-30.3-6.2-46.3-10.5l22.9-92  c8,1.9,15.4,4.3,23.5,6.8h0c33.4,11.7,57.5,34.6,41.4,67.9c-11.1,22.8-25.3,28.4-41.4,27.8v173.6c0,0,0,0,0,0v0  c5.6,13,14.2,24.1,27.2,33.4l46.4,23.2l11-28.1C1780,479.5,1767.9,461.8,1766.1,440.4z"></path>	<path class="st0" d="M1532.6,434.9v-12.4l-2.5,11.1c-0.2,0-0.4-0.1-0.6-0.1l0,0.1C1530.2,434.3,1531.4,434.3,1532.6,434.9z"></path>	<path class="st0" d="M1532.6,404.6v14.2l2.5-11.7c0.3,0.1,0.6,0.3,0.9,0.4l0.4-1.6C1534.5,405.8,1533.2,405.2,1532.6,404.6z"></path>	<path class="st0" d="M1532.6,418.8v-14.2c-9.9-4.3-15.4-11.7-19.8-27.2l-63-284.8l-47-9.3l-3.7-1.2l3.7,29.6v0v0l0.6,4.3l-0.6,1.2  v0l-114.3,213.7l-21.8,8.7c-8.3,13.6-20.6,25.1-36.9,32.7l-3.7,6.8l142.7,23.5l6.2-24.1c-32.7-9.9-60.5-21-56.2-35.8l41.4-82.2  l42.6,7.4v-26.5l0,0v0l-27.8-4.3l27.8-48.8v0l10.5-19.2l17.9,76.6l-28.4-4.3v26.5h0v0l32.7,4.9l19.1,80.3  c-1.2,22.9-16.1,30.3-42,31.5l-3.1,24.1c37.5,8,74.4,13.5,119.9,24.6L1532.6,418.8L1532.6,418.8z"></path>	<path class="st0" d="M1266.8,339.8c26.4-43.2,12.2-107.8-45.5-139c64.8-24.1,44.5-124.2-47-129.7l-1.9,0.6v35.2  c17.3,7.4,27.8,19.8,29.6,31.5c1.2,22.2-1.9,43.9-29.6,56.8v37c0,0,0,0,0,0v0c38.3,12.4,61.8,57.5,32.7,92  c-11.1,13-22.2,19.1-32.7,19.8v0l0,0c0,0,0,0,0,0v0c-21.6,1.2-39.5-19.8-46.3-48.8l0.6-61.8c15.4-6.2,31.5-5.6,45.7-1.2v-37  c0,0,0,0,0,0v0c-11.7,5.6-27.2,9.3-47.6,10.5l-6.8-105c22.2-2.5,40.1,0.6,54.4,6.2v0c0,0,0,0,0,0V71.7l0,0v0l-169.3,11.1l4.3,22.9  c25.3-4.3,46.3,6.2,53.1,36.4l13.6,157.5c2.5,39.5-11.7,59.3-32.1,65.5c-32.1,4.9-51.3-6.2-56.2-35.2L934.7,160  c-6.8-29,3.1-43.9,29-48.2l-3.1-22.2l-95.8,17.3l9.3,24.1l-36.5,215L713.5,172.3l-9.3-27.2c-80.9,21.6-133.4,41.4-213.1,71.7  l8,21.6l16.7-6.8c14.2-6.2,24.7-7.4,27.8,9.9l-17.9,98.2l-85.3-47c-15.4-6.2-11.7-19.2-2.5-26.6l21.6-9.3l-8.7-21.6  C336.1,287.9,222.4,342.8,139,412l40.2,57.5l21.6-13c-20.4-29-16.7-51.3,45.1-84.6l116.8,169.9c6.2,15.4,7.4,28.4,1.2,43.9  l-18.5,24.1l17.3,21.6c39.5-28.4,81.5-53.8,126-72.9l-10.5-22.9l-43.9,3.7c-13.6-3.1-24.7-9.3-32.1-18.5L291.6,344.7l56.2-32.1  c17.3-8,36.4-1.9,45.1,5l114.3,61.8l42,86.5c8.7,20.4-8.7,33.4-27.8,46.3l13,21c40.2-21,78.5-38.9,120.5-52.5l-6.2-22.2  c-18.5,4.9-42.6,6.8-51.3-11.8l-44.5-90.2l26.6-129.7c0.6-16.7,25.3-27.2,42-32.1c24.7-3.7,39.5,5.6,45.1,28.4l37.1,166.8  c4.9,27.2-6.8,48.8-35.8,61.8l7.4,20.4c38.6-11.9,77.3-23.4,116.1-34.6l-6.8-20.4c-33.4,4.3-44.5-8.7-51.3-43.9l-24.1-130.3  L837,426.2l39.5-9.2l-17.3-24.1l31.5-196.4L934,337.3c6.2,21.6-3.7,38.3-32.1,47.6l3.1,22.9l139.4-21.5l-2.3-20.5l3.1,20.4  l-0.8,0.1l0.2,1.7c39.5-5.6,84.6-8,127.9-8v0h35.2c8.1-1.7,15.5-4.2,22.2-7.4l12.4-22.9L1266.8,339.8z"></path></g></svg>